<svg xmlns="http://www.w3.org/2000/svg" width="1024" height="1024" viewBox="0 0 1024 1024">
<rect width="1024" height="1024" fill="#ffffff"/>
<path d="M 420.14 749.00 A 474.00 474.00 0 0 1 420.14 275.00" fill="none" stroke="#000000" stroke-width="30" stroke-linecap="round" stroke-linejoin="round"/>
<path d="M 354.14 749.00 A 474.00 474.00 0 0 1 354.14 275.00" fill="none" stroke="#000000" stroke-width="30" stroke-linecap="round" stroke-linejoin="round"/>
<path d="M 288.14 749.00 A 474.00 474.00 0 0 1 288.14 275.00" fill="none" stroke="#000000" stroke-width="30" stroke-linecap="round" stroke-linejoin="round"/>
<path d="M 222.14 749.00 A 474.00 474.00 0 0 1 222.14 275.00" fill="none" stroke="#000000" stroke-width="30" stroke-linecap="round" stroke-linejoin="round"/>
<path d="M 156.14 749.00 A 474.00 474.00 0 0 1 156.14 275.00" fill="none" stroke="#000000" stroke-width="30" stroke-linecap="round" stroke-linejoin="round"/>
<path d="M 801.86 275.00 A 474.00 474.00 0 0 1 801.86 749.00" fill="none" stroke="#000000" stroke-width="30" stroke-linecap="round" stroke-linejoin="round"/>
<path d="M 867.86 275.00 A 474.00 474.00 0 0 1 867.86 749.00" fill="none" stroke="#000000" stroke-width="30" stroke-linecap="round" stroke-linejoin="round"/>
<path d="M 156.14 275.00 Q 189.14 212.30 222.14 275.00" fill="none" stroke="#000000" stroke-width="30" stroke-linecap="round" stroke-linejoin="round"/>
<path d="M 222.14 275.00 Q 255.14 212.30 288.14 275.00" fill="none" stroke="#000000" stroke-width="30" stroke-linecap="round" stroke-linejoin="round"/>
<path d="M 354.14 749.00 Q 387.14 811.70 420.14 749.00" fill="none" stroke="#000000" stroke-width="30" stroke-linecap="round" stroke-linejoin="round"/>
<path d="M 801.86 275.00 Q 834.86 212.30 867.86 275.00" fill="none" stroke="#000000" stroke-width="30" stroke-linecap="round" stroke-linejoin="round"/>
<circle cx="611.00" cy="512.00" r="184.86" fill="none" stroke="#000000" stroke-width="30"/>
<circle cx="611.00" cy="512.00" r="133.10" fill="none" stroke="#000000" stroke-width="20"/>
<circle cx="611.00" cy="512.00" r="85.04" fill="#000000"/>
</svg>