<svg xmlns="http://www.w3.org/2000/svg" viewBox="0 0 1024 1024" width="1024" height="1024"><defs><radialGradient id="muon-paint" gradientUnits="userSpaceOnUse" cx="585.00" cy="512.00" r="412.00"><stop offset="0" stop-color="#fff715"/><stop offset="0.55" stop-color="#ff3e8a"/><stop offset="1" stop-color="#f841ff"/></radialGradient><filter id="muon-grain" x="-5%" y="-5%" width="110%" height="110%" color-interpolation-filters="sRGB"><feTurbulence type="fractalNoise" baseFrequency="2.0000" numOctaves="1" seed="7" result="noise"/><feColorMatrix in="noise" type="matrix" values="0 0 0 0 0  0 0 0 0 0  0 0 0 0 0  0.0000 0.0000 0.0000 0 0" result="speck"/><feComposite in="speck" in2="SourceGraphic" operator="in" result="clipped"/><feMerge><feMergeNode in="SourceGraphic"/><feMergeNode in="clipped"/></feMerge></filter></defs><rect width="1024" height="1024" fill="#010020"/><g transform="translate(512 512) scale(1.2) translate(-512 -512)"><g><path d="M 300.79 786.46 A 397.97 397.97 0 0 1 300.79 237.54 C 349.05 200.00 398.45 256.49 350.19 294.02 A 316.06 316.06 0 0 0 350.19 729.98" fill="none" stroke="url(#muon-paint)" stroke-width="36" stroke-linecap="round" stroke-linejoin="round"/><path d="M 350.19 729.98 A 316.06 316.06 0 0 1 350.19 294.02 C 398.45 256.49 447.86 312.97 399.60 350.51 A 234.16 234.16 0 0 0 399.60 673.49" fill="none" stroke="url(#muon-paint)" stroke-width="36" stroke-linecap="round" stroke-linejoin="round"/><path d="M 399.60 350.51 A 234.16 234.16 0 0 0 399.60 673.49 C 447.86 711.03 497.26 654.54 449.00 617.00 A 152.25 152.25 0 0 1 449.00 407.00" fill="none" stroke="url(#muon-paint)" stroke-width="36" stroke-linecap="round" stroke-linejoin="round"/><path d="M 688.00 672.00 A 208.17 208.17 0 0 0 688.00 352.00 C 629.49 318.42 660.26 234.73 718.77 268.31 A 317.04 317.04 0 0 1 718.77 755.69" fill="none" stroke="url(#muon-paint)" stroke-width="36" stroke-linecap="round" stroke-linejoin="round"/><circle cx="585.00" cy="512.00" r="130.00" fill="#010020"/><circle cx="585.00" cy="512.00" r="110.12" fill="url(#muon-paint)"/><circle cx="585.00" cy="512.00" r="38.24" fill="#010020"/></g></g></svg>